<?xml version="1.0" encoding="UTF-8" standalone="no"?><!DOCTYPE svg PUBLIC "-//W3C//DTD SVG 1.1//EN" "http://www.w3.org/Graphics/SVG/1.1/DTD/svg11.dtd"><svg width="100%" height="100%" viewBox="0 0 1000 1000" version="1.1" xmlns="http://www.w3.org/2000/svg" xmlns:xlink="http://www.w3.org/1999/xlink" xml:space="preserve" xmlns:serif="http://www.serif.com/" style="fill-rule:evenodd;clip-rule:evenodd;stroke-linejoin:round;stroke-miterlimit:2;"><g><path d="M215.198,614.904c-33.301,-52.332 -52.598,-114.43 -52.598,-181c0,-126.094 69.236,-236.145 171.734,-294.177c49.055,-27.775 105.728,-43.634 166.077,-43.634c30.647,0 60.346,4.09 88.581,11.754c143.535,38.957 249.23,170.261 249.23,326.057c-0,56.768 -14.033,110.283 -38.816,157.265c-15.832,-0.036 -30.44,-1.086 -43.915,-2.972c-86.339,-12.081 -126.208,-58.448 -144.036,-91.915c-13.523,-25.565 -12.288,-56.421 3.236,-80.823c32.555,-51.09 96.797,-61.532 96.797,-61.532c-78.484,-12.469 -135.73,61.518 -135.73,61.518c-27.987,-36.517 -62.356,-50.627 -91.341,-55.21c-31.861,-5.118 -64.505,1.202 -92.153,17.841c-98.426,59.358 -58.374,161.3 -58.374,161.3c76.369,163.846 225.635,54.204 225.635,54.204c-5.003,17.191 -11.181,30.554 -15.977,39.445c-3.927,7.18 -9.311,13.459 -15.806,18.437c-82.503,62.893 69.923,77.613 130.876,80.938c-47.208,25.093 -101.06,39.315 -158.207,39.315c-52.74,-0 -102.673,-12.112 -147.167,-33.704c-56.638,-27.485 -104.463,-70.33 -138.046,-123.107Zm523.942,-178.21c-12.764,0 -23.127,10.363 -23.127,23.128c-0,12.764 10.363,23.127 23.127,23.127c12.764,0 23.128,-10.363 23.128,-23.127c-0,-12.765 -10.364,-23.128 -23.128,-23.128Z" style="fill:#6ad2f1;"/><path d="M680.161,710.154c-0,-0 -127.031,-17.921 -112.011,-52.509c2.334,-5.46 4.225,-11.099 5.656,-16.862c7.36,-30.221 19.654,-99.28 -32.419,-66.319c-0,-0 -93.491,53.944 -140.707,8.964c-1.432,-1.361 -2.768,-2.821 -3.997,-4.369c-8.635,-11.146 -63.471,-85.784 0.118,-101.945c0,0 60.323,-3.653 39.668,-47.92c0,-0 -17.546,-43.326 60.894,-30.922c8.742,1.358 16.996,4.908 23.993,10.321c13.79,10.722 34.691,33.243 44.788,75.606c-0,0 51.207,137.554 210.419,133.279c0,-0 -51.224,77.303 -96.402,92.676Z" style="fill:#6ad2f1;"/><path d="M381.675,117.584c-16.425,6.176 -32.244,13.595 -47.341,22.143c-32.254,-19.398 -122.035,-85.618 94.701,-116.339c0,-0 87.253,-3.821 159.957,84.459c-16.381,-4.446 -33.256,-7.69 -50.522,-9.629c-8.435,-0.948 -16.963,-1.584 -25.573,-1.898c-4.144,-0.151 -8.306,-0.227 -12.486,-0.227c-6.285,0 -12.531,0.172 -18.732,0.512c-4.346,0.238 -8.67,0.558 -12.972,0.959c-8.126,0.758 -16.17,1.805 -24.12,3.129c-5.774,0.962 -11.498,2.07 -17.169,3.321c-9.224,2.035 -18.307,4.448 -27.232,7.22c-6.25,1.942 -12.422,4.061 -18.511,6.35Z" style="fill:#3bc3ec;"/><path d="M467.404,51.61c15.747,8.937 52.103,30.22 71.066,46.608c-8.435,-0.948 -16.963,-1.584 -25.573,-1.898c-12.265,-14.012 -31.734,-35.145 -45.493,-44.71Zm-0,-0c-2.8,-1.947 -5.364,-3.415 -7.582,-4.246c-0,0 2.867,1.569 7.582,4.246Zm-42.098,2.288c7.05,3.699 34.043,18.713 56.373,42.707c-4.346,0.238 -8.67,0.558 -12.972,0.959c-11.384,-13.395 -32.574,-37.392 -43.401,-43.666Zm-0,-0c-0.619,-0.359 -1.204,-0.66 -1.752,-0.897c0,-0 0.618,0.302 1.752,0.897Zm2.112,50.116c-7.052,-10.737 -21.357,-29.761 -39.361,-39.094c-0,-0 37.413,15.453 56.53,35.773c-5.774,0.962 -11.498,2.07 -17.169,3.321Zm-45.743,13.57c-7.65,-12.681 -24.398,-38.012 -39.207,-43.69c-0,-0 35.652,11.537 57.718,37.34c-6.25,1.942 -12.422,4.061 -18.511,6.35Z" style="fill:#6ad2f1;"/><path d="M215.198,614.904c33.583,52.777 81.408,95.622 138.046,123.107c6.472,70.251 2.815,65.949 -79.765,18.105c-68.6,-39.744 -63.635,-111.876 -58.281,-141.212Z" style="fill:#3bc3ec;"/><circle cx="387.695" cy="439.331" r="16.072" style="fill:#6ad2f1;"/><circle cx="421.024" cy="448.043" r="9.228" style="fill:#6ad2f1;"/></g><g transform="matrix(120.024,0,0,120.024,843.934,897.322)"></g><text x="161.765px" y="897.322px" style="font-family:'Arial-Black', 'Arial Black', sans-serif;font-weight:900;font-size:120.024px;fill:#6ad2f1;">ABS F<tspan x="543.932px 637.291px " y="897.322px 897.322px ">AR</tspan>M</text><g transform="matrix(41.0948,0,0,41.0948,840.586,946.337)"></g><text x="161.78px" y="946.337px" style="font-family:'Arial-Black', 'Arial Black', sans-serif;font-weight:900;font-size:41.095px;fill:#6ad2f1;">Aquacultur<tspan x="409.031px 436.441px " y="946.337px 946.337px ">e </tspan>Balanced System</text></svg>